<svg id="SvgjsSvg1021" width="288" height="288" xmlns="http://www.w3.org/2000/svg" version="1.1" xmlns:xlink="http://www.w3.org/1999/xlink" xmlns:svgjs="http://svgjs.com/svgjs"><defs id="SvgjsDefs1022"></defs><g id="SvgjsG1023"><svg xmlns="http://www.w3.org/2000/svg" enable-background="new 0 0 256 256" viewBox="0 0 256 256" width="288" height="288"><path d="M91.6 193.9c-2.8 0-5.3-1.2-7.1-3.1-1.8 1.9-4.3 3.1-7.1 3.1-5.4 0-9.7-4.4-9.7-9.7v-23c-5.4-1.4-11.5-5-14-9.6-1.5-2.8-1.7-5.6-.5-8.3l10.7-23.6c3.4-7.5 7.2-15.9 16.9-15.9h7.9c10 0 14 9.2 16.9 15.9l10.2 23.6c1.2 2.7 1 5.6-.6 8.3-2.6 4.5-8.6 8.1-13.9 9.5v23C101.3 189.6 96.9 193.9 91.6 193.9zM83.9 155.5H85c1.8 0 3.2 1.4 3.2 3.2v25.5c0 1.8 1.5 3.3 3.3 3.3s3.3-1.5 3.3-3.3v-25.6c0-1.6 1.2-3 2.8-3.2 4.1-.5 10-3.4 12-6.8.7-1.3.5-2.1.3-2.6l-10.3-23.6c-3.2-7.3-5.6-12.1-11.1-12.1h-7.9c-5.4 0-7.7 4.6-11.1 12.1L58.9 146c-.2.5-.4 1.3.3 2.5 1.9 3.3 7.9 6.4 12 6.9 1.6.2 2.8 1.6 2.8 3.2v25.6c0 1.8 1.5 3.3 3.3 3.3s3.3-1.5 3.3-3.3v-25.5C80.7 156.9 82.2 155.5 83.9 155.5zM84.4 100c-10.4 0-18.9-8.5-18.9-18.9 0-10.5 8.5-19 18.9-19 10.5 0 19 8.5 19 19C103.4 91.5 94.9 100 84.4 100zM84.4 68.5c-6.9 0-12.5 5.6-12.5 12.6 0 6.9 5.6 12.5 12.5 12.5C91.4 93.6 97 88 97 81.1 97 74.1 91.4 68.5 84.4 68.5zM182.6 193.9c-2.8 0-5.3-1.2-7.1-3.1-1.8 1.9-4.3 3.1-7.1 3.1-5.4 0-9.7-4.4-9.7-9.7v-33.5c-.3-.3-.6-.6-.9-.9-1.2-1.2-2.6-2.5-3.1-4.3l-6.9-23.5c-1.1-3.6-.3-7.5 2.2-10.8 3.3-4.4 9.3-7.3 14.9-7.3h21.2c5.6 0 11.4 2.8 14.7 7.2 2.5 3.3 3.4 7.2 2.4 10.9l-6.4 23.6c-.5 2-2 3.5-3.3 4.9-.4.4-.8.9-1.2 1.3v32.6C192.4 189.6 188 193.9 182.6 193.9zM175 155.5h1.2c1.8 0 3.2 1.4 3.2 3.2v25.5c0 1.8 1.5 3.3 3.3 3.3s3.3-1.5 3.3-3.3v-33.5c0-.5.1-1 .3-1.4.6-1.3 1.6-2.3 2.6-3.3.6-.6 1.6-1.7 1.7-2.1l6.4-23.6c.5-1.8.1-3.6-1.3-5.3-2.1-2.7-6.1-4.7-9.7-4.7H165c-3.7 0-7.7 2-9.8 4.8-1.3 1.7-1.7 3.4-1.2 5.2l6.9 23.6c.1.2.9.9 1.3 1.4 1 1 2 1.9 2.6 3.2.2.4.3.9.3 1.3v34.5c0 1.8 1.5 3.3 3.3 3.3 1.8 0 3.3-1.5 3.3-3.3v-25.5C171.8 156.9 173.2 155.5 175 155.5zM175.5 100c-10.4 0-18.9-8.5-18.9-18.9 0-10.5 8.5-19 18.9-19 10.5 0 19 8.5 19 19C194.5 91.5 186 100 175.5 100zM175.5 68.5c-6.9 0-12.5 5.6-12.5 12.6 0 6.9 5.6 12.5 12.5 12.5 6.9 0 12.6-5.6 12.6-12.5C188.1 74.1 182.4 68.5 175.5 68.5zM130 214.1c-1.8 0-3.2-1.4-3.2-3.2V45.1c0-1.8 1.4-3.2 3.2-3.2s3.2 1.4 3.2 3.2v165.7C133.2 212.6 131.8 214.1 130 214.1z" display="none" fill="#ffffff" class="color000 svgShape"></path><path d="M165.7,168.9c-0.8,0-1.6-0.3-2.3-0.9L88.5,93c-1.2-1.2-1.2-3.3,0-4.5c1.2-1.2,3.3-1.2,4.5,0l74.9,74.9			c1.2,1.2,1.2,3.3,0,4.5C167.3,168.5,166.5,168.9,165.7,168.9z" fill="#ffffff" class="color000 svgShape"></path><path d="M144.1,93.5h-53c-1.8,0-3.2-1.4-3.2-3.2c0-1.8,1.4-3.2,3.2-3.2h53c1.8,0,3.2,1.4,3.2,3.2
			C147.3,92.1,145.9,93.5,144.1,93.5z" fill="#ffffff" class="color000 svgShape"></path><path d="M90.3,147.3c-1.8,0-3.2-1.4-3.2-3.2v-53c0-1.8,1.4-3.2,3.2-3.2c1.8,0,3.2,1.4,3.2,3.2v53
			C93.5,145.9,92.1,147.3,90.3,147.3z" fill="#ffffff" class="color000 svgShape"></path></svg></g></svg>